# xmcd
#
# Track frame offsets:
# 150
# 17237
# 45750
# 69261
# 83531
# 122933
# 137911
# 154543
# 179387
# 203357
# 223580
# 236639
#
# Disc length: 3404 seconds
#
#
# Revision: 0
# Processed by: cddbd v1.5.2PL0 Copyright (c) Steve Scherf et al.
# Submitted via: FreeRIP 2.941 
#
DISCID=950d4a0c
DTITLE=The famous Unknowns - Wanted
DYEAR=2007
DGENRE=Country
TTITLE0=Daft Shaft
TTITLE1=Cry of the Valkyrie
TTITLE2=Divine
TTITLE3=Take us
TTITLE4=The pleasand Orbit
TTITLE5=Cash Country
TTITLE6=Beat I like it
TTITLE7=New Light
TTITLE8=Catmosphere
TTITLE9=Cowboy Risotto
TTITLE10=Kamikaze Requiem
TTITLE11=When you feel good
EXTD=Holland!
EXTT0=
EXTT1=
EXTT2=
EXTT3=
EXTT4=
EXTT5=
EXTT6=
EXTT7=
EXTT8=
EXTT9=
EXTT10=
EXTT11=
PLAYORDER=
